<svg xmlns="http://www.w3.org/2000/svg"
     viewBox="0 285 805 195"
     fill="currentColor">
  <g transform="translate(0,800) scale(0.1,-0.1)">
    <path d="M1755 5078 c-3 -7 -4 -497 -3 -1088 l3 -1075 28 -3 27 -3 0 1090 0 1091 -25 0 c-14 0 -28 -6 -30 -12z"/>
    <path d="M6956 4825 c-58 -21 -88 -46 -116 -101 -24 -46 -25 -58 -28 -251 l-4 -203 -39 0 -39 0 0 -60 0 -60 40 0 40 0 0 -330 0 -330 65 0 65 0 0 330 0 330 90 0 90 0 0 60 0 59 -87 3 -88 3 0 182 c0 169 1 184 21 210 25 34 82 43 119 19 14 -9 26 -16 29 -16 2 0 19 23 37 51 l33 52 -27 23 c-50 43 -130 54 -201 29z"/>
    <path d="M6376 4664 c-38 -39 -36 -93 5 -128 17 -15 43 -26 59 -26 16 0 42 11 59 26 64 53 25 154 -59 154 -27 0 -45 -7 -64 -26z"/>
    <path d="M2390 4085 l0 -595 198 0 c209 0 275 10 357 51 125 64 193 209 166 354 -23 122 -86 187 -236 239 -17 6 -13 11 28 31 104 50 142 112 141 230 -1 138 -61 221 -189 264 -58 19 -88 21 -265 21 l-200 0 0 -595z m393 459 c59 -20 116 -81 118 -127 5 -103 -15 -149 -83 -187 -38 -22 -58 -25 -165 -28 l-123 -4 0 181 0 181 103 0 c68 0 119 -5 150 -16z m52 -489 c51 -21 102 -70 121 -114 20 -48 18 -147 -5 -198 -22 -48 -85 -98 -145 -114 -23 -7 -93 -12 -156 -13 l-115 -1 -3 234 -2 234 132 -5 c94 -4 145 -11 173 -23z"/>
    <path d="M685 4590 c-4 -6 -31 -101 -60 -211 -29 -110 -61 -211 -70 -225 -20 -31 -30 -35 -250 -94 -212 -57 -212 -57 -220 -78 -11 -30 25 -46 221 -99 108 -28 207 -59 220 -68 35 -23 46 -51 99 -255 46 -178 64 -220 90 -220 24 0 35 28 89 229 43 160 60 209 80 230 22 23 60 37 229 81 111 29 208 58 215 63 6 5 12 20 12 32 0 28 2 27 -250 94 -135 37 -189 55 -206 73 -18 17 -36 72 -74 213 -28 105 -56 201 -63 215 -13 26 -51 39 -62 20z"/>
    <path d="M5947 4543 c-4 -3 -7 -66 -7 -140 l0 -133 -60 0 -60 0 0 -60 0 -60 60 0 60 0 2 -327 3 -328 68 -3 67 -3 0 331 0 330 65 0 65 0 0 60 0 60 -65 0 -65 0 0 140 0 140 -63 0 c-35 0 -67 -3 -70 -7z"/>
    <path d="M3552 4279 c-105 -20 -212 -112 -253 -217 -34 -85 -38 -248 -10 -334 38 -113 133 -210 234 -240 68 -20 212 -14 280 12 65 24 139 79 180 133 l28 37 -53 34 -53 34 -39 -45 c-55 -64 -122 -93 -211 -93 -87 0 -138 22 -188 81 -35 40 -51 79 -59 139 l-3 25 309 3 309 2 -5 88 c-4 67 -12 103 -33 150 -28 63 -95 136 -151 165 -66 33 -188 45 -282 26z m230 -144 c46 -33 84 -92 90 -140 l3 -30 -233 -3 -234 -2 7 32 c13 61 62 125 118 153 45 23 62 26 129 23 66 -3 82 -7 120 -33z"/>
    <path d="M4380 4280 c-25 -5 -78 -26 -118 -46 l-73 -35 22 -37 c38 -65 38 -64 107 -30 52 26 79 32 147 36 94 5 141 -7 176 -44 21 -22 24 -37 27 -115 l4 -89 -45 20 c-98 44 -253 45 -349 2 -52 -23 -111 -86 -128 -137 -20 -62 -9 -155 26 -211 87 -141 328 -162 456 -40 15 14 30 26 33 26 3 0 5 -20 5 -45 l0 -45 65 0 66 0 -3 323 -3 324 -27 40 c-20 30 -45 50 -93 74 -57 28 -77 32 -158 35 -50 2 -112 -1 -137 -6z m195 -421 c96 -25 98 -27 92 -85 -11 -109 -101 -184 -218 -184 -97 0 -151 32 -169 102 -13 46 1 106 29 132 46 42 176 59 266 35z"/>
    <path d="M5040 3992 c0 -310 6 -349 63 -424 48 -62 113 -92 201 -92 87 0 150 27 201 87 l35 41 0 -57 0 -57 70 0 70 0 0 390 0 390 -70 0 -70 0 0 -265 c0 -241 -2 -269 -19 -303 -35 -69 -95 -102 -184 -102 -64 0 -110 26 -141 80 -20 33 -21 54 -24 313 l-3 277 -65 0 -64 0 0 -278z"/>
    <path d="M6370 3880 l0 -390 70 0 70 0 0 390 0 390 -70 0 -70 0 0 -390z"/>
    <path d="M7160 4265 c0 -3 65 -152 145 -331 80 -180 145 -330 145 -335 0 -5 -47 -115 -105 -245 -58 -130 -105 -238 -105 -240 0 -2 34 -4 75 -4 63 0 77 3 82 18 4 9 118 269 254 577 l248 560 -71 3 c-39 2 -74 -1 -78 -5 -4 -4 -53 -124 -110 -265 -56 -142 -105 -256 -109 -254 -4 3 -54 122 -111 265 l-105 261 -77 0 c-43 0 -78 -2 -78 -5z"/>
  </g>
</svg>
